<svg xmlns="http://www.w3.org/2000/svg" viewBox="0 0 48 48" id="grocery"><path d="M24.584,19.683v6.16a5.843,5.843,0,1,1-11.685,0v-6.16a.5.5,0,0,1,1,0v6.16a4.843,4.843,0,1,0,9.685,0v-6.16a.5.5,0,0,1,1,0Zm13.332-2.609V41.95c0,.011-.006.021-.007.032a.433.433,0,0,1-.02.1.341.341,0,0,1-.08.163.459.459,0,0,1-.068.078c-.008.007-.011.017-.02.023s-.02,0-.029.01a.482.482,0,0,1-.275.094H9.508a.5.5,0,0,1-.5-.5V17.074a.5.5,0,0,1,.5-.5h.727a2.266,2.266,0,0,1-.426-1.707c.063-.544-.1-.644-.682-.9a2.092,2.092,0,0,1-1.458-2.455C7.84,9.874,8.486,9.361,9,9.218a1.888,1.888,0,0,1,1.9.813c.173.229.132.134.133.134a1.28,1.28,0,0,0,.213-.065,1.777,1.777,0,0,1,.852-.126,3.6,3.6,0,0,1,.542-.643A1.7,1.7,0,0,0,13.177,8,1.754,1.754,0,0,1,14.6,6.148a1.732,1.732,0,0,1,1.585.09,2.088,2.088,0,0,1,.623,1.756c0,.139.007.267.022.369a1.916,1.916,0,0,0,.628,1.051c.718.77,1.225,1.547.14,3.268-.4.639-.3.742.1,1.122a2.183,2.183,0,0,1,.557,2.77h.5V14.069a2.312,2.312,0,0,1,1.488-2.153,1.3,1.3,0,0,0,.822-1.083H20.9a.5.5,0,0,1-.5-.5V8.964a1.5,1.5,0,0,1,1.5-1.5h3.273a1.5,1.5,0,0,1,1.5,1.5v1.369a.5.5,0,0,1-.5.5h-.167a1.3,1.3,0,0,0,.821,1.083,2.3,2.3,0,0,1,1.085.857c1.915-2.213,8.018-8.79,11.343-6.88a2.105,2.105,0,0,1,1.069,1.582c.374,2.657-3.411,7.178-5.154,9.1h2.243A.5.5,0,0,1,37.916,17.074Zm-1,.5H33.2V35.648l3.72,4.833ZM28.475,40.481,32.2,35.648V17.574H28.475Zm.516.969H36.4l-3.7-4.813Zm-.7-27.573c.006.065.03.125.03.192v2.505h5.489c1.774-1.859,5.849-6.683,5.529-8.96a1.093,1.093,0,0,0-.577-.854c-1.367-.785-3.692.615-5.881,2.472a5.441,5.441,0,0,0,2.275,1.861.5.5,0,0,1-.18.967.51.51,0,0,1-.179-.033,6.359,6.359,0,0,1-2.671-2.134c-.8.721-1.551,1.471-2.218,2.176a7.384,7.384,0,0,0,2.362,1.937.5.5,0,0,1-.194.96.493.493,0,0,1-.195-.04,8.109,8.109,0,0,1-2.657-2.119C28.865,13.2,28.553,13.562,28.289,13.877ZM21.4,9.833h4.273V8.964a.5.5,0,0,0-.5-.5H21.9a.5.5,0,0,0-.5.5ZM19.76,16.574h7.559V14.069a1.307,1.307,0,0,0-.842-1.218,2.3,2.3,0,0,1-1.468-2.018H22.07A2.3,2.3,0,0,1,20.6,12.851a1.308,1.308,0,0,0-.841,1.218Zm-6.972-5.823c-.17.418.031.747.432,1.342a2.933,2.933,0,0,1,.659,2.6,1.41,1.41,0,0,0,.865,1.881h.672A20.367,20.367,0,0,1,14.6,9.325a.5.5,0,0,1,.994.118,19.952,19.952,0,0,0,.863,7.131h.709c.626-1.279.287-1.628-.152-2.046a1.6,1.6,0,0,1-.26-2.379c.762-1.209.483-1.509-.025-2.052a2.847,2.847,0,0,1-.886-1.589,4.273,4.273,0,0,1-.032-.484c-.009-.316-.026-.845-.2-.97a.961.961,0,0,0-.7.047c-.682.218-.694.406-.732.966a2.675,2.675,0,0,1-.852,1.991A2.2,2.2,0,0,0,12.788,10.751Zm-.533,5.823H13.2a2.193,2.193,0,0,1-.333-.743,17.353,17.353,0,0,0-2.52-3.208.5.5,0,1,1,.686-.727,17.53,17.53,0,0,1,1.917,2.259,2.282,2.282,0,0,0-.558-1.5A2.916,2.916,0,0,1,11.733,11c-.05.014-.091.02-.156.043a1.138,1.138,0,0,1-1.479-.408.953.953,0,0,0-.831-.453c-.293.082-.519.617-.6,1.431-.1,1,.264,1.165.874,1.438A1.715,1.715,0,0,1,10.8,14.982a1.287,1.287,0,0,0,.241,1.012A1.968,1.968,0,0,0,12.255,16.574ZM10.008,41.45H27.475V17.574H10.008Z"></path></svg>